# xmcd
# 
# Track frame offsets:
#     150
#     2465
#     27452
#     45902
#     64425
#     85655
#     104805
#     125550
#     159700
#     183020
#     204655
# 
# Disc length: 2955
# 
# Revision: 6
# Processed by: cddbd v1.5.2PL0 Copyright (c) Steve Scherf et al.
# Submitted via: BonkEnc v1.0.6
# 
DISCID=8e0b890b
DTITLE=Freedom Call - Crystal Empire
DYEAR=0
DGENRE=
TTITLE0=The King Of The Crystal Empire
TTITLE1=Freedom Call
TTITLE2=Rise Up
TTITLE3=Farewell
TTITLE4=Pharao
TTITLE5=Call Of Fame
TTITLE6=Heart Of The Rainbow
TTITLE7=The Quest
TTITLE8=Ocean
TTITLE9=Palace Of Fantasy
TTITLE10=The Wanderer
EXTD=
EXTT0=
EXTT1=
EXTT2=
EXTT3=
EXTT4=
EXTT5=
EXTT6=
EXTT7=
EXTT8=
EXTT9=
EXTT10=
PLAYORDER=
